#Comment line ignore any data following # character
#Hierarchical Translation and Rotation (.htr) file
[Header]		#Header keywords are followed by a single value
FileType htr		#Single word string
DataType HTRS		#Translation followed by rotation and scale data
FileVersion 1		#integer
NumSegments 15		#integer
NumFrames 4		#integer
DataFrameRate 60		#integer, data frame rate in this file
EulerRotationOrder ZYX
CalibrationUnits mm
RotationUnits Degrees
GlobalAxisofGravity Y
BoneLengthAxis Y
ScaleFactor 1.000000
[SegmentNames&Hierarchy]
#CHILD	PARENT
1cou	1buste
1buste	1bassin
1brasG	1buste
1brasD	1buste
1avbrasG	1brasG
1avbrasD	1brasD
1mainG	1avbrasG
1mainD	1avbrasD
1bassin	GLOBAL
1cuisseG	1bassin
1cuisseD	1bassin
1moletG	1cuisseG
1moletD	1cuisseD
1piedG	1moletG
1piedD	1moletD
[BasePosition]
#SegmentName Tx, Ty, Tz, Rx, Ry, Rz, BoneLength
1cou	0.000002	394.639771	0.000003	47.447697	-6.500580	2.097482	232.574402
1buste	0.331046	98.159424	9.920088	5.813737	-6.959647	-0.900074	394.639771
1brasG	222.293304	333.760773	-3.143221	-5.521868	-4.449825	-174.025208	338.016541
1brasD	-186.675308	347.235016	-30.968008	-5.508482	16.777920	169.824814	318.101379
1avbrasG	0.000004	338.016571	-0.000002	34.403133	17.432653	23.106703	253.821075
1avbrasD	-0.000007	318.101410	-0.000013	32.381824	-10.529597	-11.344105	276.946075
1mainG	0.000006	253.821091	-0.000001	-3.773718	-0.485368	-1.748444	73.639816
1mainD	-0.000031	276.946106	-0.000010	-3.909555	0.199285	0.225476	80.942635
1bassin	396.031860	1037.839600	833.112305	178.297836	19.764000	-179.799622	97.859962
1cuisseG	108.625954	-0.934603	-40.474510	172.403458	-4.353497	-0.165467	517.714233
1cuisseD	-106.972656	-1.326527	-48.733826	172.076172	-12.757409	2.045154	501.698334
1moletG	0.000006	517.714233	-0.000009	157.872192	5.331374	176.676331	488.075745
1moletD	-0.000005	501.698303	0.000003	156.316269	3.295414	-177.725830	511.880615
1piedG	0.000002	488.075745	-0.000006	99.880898	-0.000004	0.000000	242.425140
1piedD	-0.000009	511.880646	-0.000013	102.622849	0.000000	0.000000	237.138092
#Beginning of Data. Separated by tabs
[1cou]
#Fr	Tx	Ty	Tz	Rx	Ry	Rz	SF
161	-0.000004	-34.341614	-0.000020	-5.842313	-25.778357	13.345010	0.955919
162	0.000011	-34.241608	-0.000005	-6.104794	-25.156006	12.824846	0.958173
163	0.000000	-34.195068	0.000007	-6.283116	-24.566818	12.116642	0.959925
164	0.000016	-34.468292	0.000020	-6.452728	-23.814857	11.237801	0.961616
[1buste]
#Fr	Tx	Ty	Tz	Rx	Ry	Rz	SF
161	4.626063	-9.310165	4.032092	2.794889	-8.648155	-3.750006	0.912980
162	4.849713	-9.321129	4.181057	2.873745	-8.876682	-3.925734	0.913233
163	5.021188	-9.362480	4.449397	3.036866	-9.298697	-4.102837	0.913351
164	5.276224	-9.551208	5.075307	3.435421	-9.801643	-4.413337	0.912659
[1brasG]
#Fr	Tx	Ty	Tz	Rx	Ry	Rz	SF
161	-61.835281	-17.630463	37.744591	97.138474	24.315023	72.158867	0.900271
162	-62.093613	-17.946625	37.175880	98.001465	24.298441	72.023544	0.898577
163	-62.423126	-18.536987	36.466286	98.539543	24.395428	71.471878	0.896623
164	-62.686188	-19.026398	36.085297	99.088554	24.558008	70.915680	0.895269
[1brasD]
#Fr	Tx	Ty	Tz	Rx	Ry	Rz	SF
161	0.978638	-66.897156	-16.158743	5.844534	-21.293425	4.989137	0.891425
162	0.592056	-65.700989	-14.892950	6.036942	-21.161413	4.145636	0.889650
163	0.232086	-64.667999	-13.724802	6.298115	-21.203316	3.196699	0.887182
164	-0.016830	-64.571503	-12.898333	6.600368	-21.178396	2.189123	0.882581
[1avbrasG]
#Fr	Tx	Ty	Tz	Rx	Ry	Rz	SF
161	-0.000006	-33.710205	0.000009	28.915348	3.605904	28.771603	1.145846
162	-0.000021	-34.282562	0.000005	28.467690	3.227783	27.833130	1.144919
163	-0.000025	-34.943207	0.000034	28.108952	2.805099	26.740814	1.145005
164	-0.000002	-35.400970	-0.000016	27.736862	2.612306	25.767012	1.144817
[1avbrasD]
#Fr	Tx	Ty	Tz	Rx	Ry	Rz	SF
161	0.000019	-34.537994	0.000036	65.770836	-7.093232	-69.678581	0.860244
162	0.000012	-35.102478	0.000007	65.379433	-6.976019	-68.511765	0.860856
163	-0.000001	-35.887482	0.000016	64.954590	-6.983123	-67.411720	0.862952
164	0.000022	-37.351135	0.000006	64.496193	-6.982889	-66.145134	0.865277
[1mainG]
#Fr	Tx	Ty	Tz	Rx	Ry	Rz	SF
161	-0.000027	37.018784	-0.000014	1.936898	0.388479	1.300194	1.112894
162	0.000004	36.783524	0.000013	1.907789	0.390024	1.289081	1.112253
163	-0.000020	36.805344	-0.000015	1.883420	0.390925	1.272099	1.112651
164	-0.000008	36.757706	0.000005	1.858720	0.390127	1.246233	1.112796
[1mainD]
#Fr	Tx	Ty	Tz	Rx	Ry	Rz	SF
161	0.000021	-38.704926	0.000003	2.622723	-0.450899	-1.227093	0.812838
162	0.000017	-38.535324	0.000024	2.619350	-0.439448	-1.216162	0.813454
163	0.000020	-37.954941	0.000014	2.612322	-0.418330	-1.191595	0.815584
164	0.000035	-37.311188	-0.000001	2.605813	-0.394814	-1.160914	0.817932
[1bassin]
#Fr	Tx	Ty	Tz	Rx	Ry	Rz	SF
161	-889.560974	-816.592285	-180.126343	-103.337433	-26.799959	102.943207	0.921812
162	-889.207275	-816.600830	-182.892090	-103.075363	-27.662815	102.730850	0.920499
163	-888.773743	-816.354736	-185.515747	-102.908539	-28.537733	102.421265	0.920620
164	-888.574097	-815.871948	-187.968872	-102.870346	-29.330826	101.925491	0.920176
[1cuisseG]
#Fr	Tx	Ty	Tz	Rx	Ry	Rz	SF
161	-7.622154	0.374114	-9.960953	-21.551413	-17.509884	-12.443184	1.012365
162	-7.837547	0.425797	-9.602032	-21.525715	-17.765211	-12.855894	1.010884
163	-7.831398	0.448292	-9.308815	-21.441423	-17.785006	-13.299937	1.010360
164	-7.870613	0.446251	-8.977909	-21.290014	-17.464188	-13.743521	1.011382
[1cuisseD]
#Fr	Tx	Ty	Tz	Rx	Ry	Rz	SF
161	3.063644	-1.475061	12.922886	-57.212543	-14.629034	-21.745037	1.069946
162	3.342339	-1.553157	12.971561	-57.618740	-14.298397	-22.069269	1.069429
163	3.419022	-1.631431	12.856499	-57.924171	-13.879722	-22.319714	1.068772
164	3.538597	-1.767427	12.796051	-58.103867	-13.293775	-22.404625	1.067687
[1moletG]
#Fr	Tx	Ty	Tz	Rx	Ry	Rz	SF
161	-0.000017	6.401733	0.000001	-9.064753	-11.845965	2.534331	0.957486
162	0.000013	5.634766	0.000024	-8.500929	-11.568689	2.609993	0.955729
163	0.000001	5.363586	-0.000007	-8.164653	-11.124819	2.767424	0.953375
164	-0.000015	5.892578	0.000028	-8.071377	-11.429451	2.912568	0.953609
[1moletD]
#Fr	Tx	Ty	Tz	Rx	Ry	Rz	SF
161	0.000001	35.091736	0.000008	-74.803108	2.224669	9.871712	0.865557
162	0.000009	34.832336	-0.000031	-74.784210	2.584133	10.088329	0.864879
163	0.000010	34.503052	-0.000007	-74.842010	2.969434	10.462255	0.864903
164	-0.000002	33.958496	-0.000023	-75.020813	3.412071	10.693754	0.865633
[1piedG]
#Fr	Tx	Ty	Tz	Rx	Ry	Rz	SF
161	0.000035	-20.749939	-0.000005	-3.108115	-0.000000	-0.000005	1.021053
162	-0.000019	-21.607483	0.000006	-3.822430	-0.000002	-0.000002	1.023474
163	0.000011	-22.756409	0.000006	-4.325816	-0.000003	-0.000006	1.026171
164	-0.000004	-22.642334	0.000045	-4.358132	-0.000003	-0.000005	1.026437
[1piedD]
#Fr	Tx	Ty	Tz	Rx	Ry	Rz	SF
161	0.000034	-68.819061	0.000046	5.347948	-0.000000	-0.000000	1.052824
162	0.000025	-69.165985	-0.000014	5.272449	0.000000	-0.000000	1.052052
163	0.000016	-69.153656	0.000003	5.194852	0.000000	0.000001	1.049422
164	-0.000007	-68.779846	0.000026	5.184838	0.000000	-0.000000	1.053641
[EndOfFile]
